# xmcd CD database file
#
# Track frame offsets:
#	150
#	18065
#	37495
#	46772
#	63387
#	82647
#	103245
#	124647
#	139800
#	173530
#	181962
#	194387
#	229232
#
# Disc length: 3269 seconds
#
# Revision: 3
# Processed by: cddbd v1.5.2PL0 Copyright (c) Steve Scherf et al.
# Submitted via: CDex 1.51
#
DISCID=a50cc30d
DTITLE=Dave Douglas - Mountain Passages
DYEAR=2005
DGENRE=Jazz
TTITLE0=Summit Music
TTITLE1=Family of the Climber
TTITLE2=Gnarly Schnapps
TTITLE3=Gumshoe
TTITLE4=Twelve Degrees Proof
TTITLE5=North Point Memorial
TTITLE6=Cannonball Run
TTITLE7=Palisades
TTITLE8=A Nasty Spill
TTITLE9=Purple Mountain Majesty
TTITLE10=Off Major
TTITLE11=Bury Me Standing
TTITLE12=Encore: All is Forgiven
EXTD=YEAR: 2005
EXTT0=
EXTT1=
EXTT2=
EXTT3=
EXTT4=
EXTT5=
EXTT6=
EXTT7=
EXTT8=
EXTT9=
EXTT10=
EXTT11=
EXTT12=
PLAYORDER=
